<svg width="31" height="25" viewBox="0 0 31 25" fill="none" xmlns="http://www.w3.org/2000/svg">
<path d="M15.1916 0.00166084C15.745 -0.00834167 16.2347 0.0258323 16.7785 0.131544C18.6729 0.506732 20.3406 1.61915 21.4142 3.22432C22.4776 4.81546 22.8675 6.76348 22.4982 8.64131C22.2163 10.0769 21.5035 11.3931 20.4552 12.4138C20.25 12.6155 19.9281 12.9029 19.6896 13.0632C20.8388 13.4475 21.886 14.0887 22.7511 14.9372C24.3454 16.4986 25.1697 18.5447 25.1652 20.7614C25.163 21.7816 25.2423 22.6074 24.4406 23.4167C24.1839 23.6806 23.8708 23.8828 23.5246 24.0075C23.1262 24.1515 22.4544 24.242 22.0187 24.3132C19.9116 24.66 17.78 24.8389 15.6447 24.8483C13.3094 24.8664 10.9763 24.6812 8.67301 24.2956C8.15574 24.2105 7.5546 24.1468 7.07633 23.9372C6.48386 23.6777 6.00472 23.1598 5.77555 22.5573C5.59586 22.0848 5.6048 21.6061 5.60758 21.1101C5.5833 19.7034 5.76422 18.562 6.35563 17.2771C7.12164 15.6423 8.41508 14.312 10.0275 13.4997C10.3682 13.3274 10.7207 13.1934 11.0783 13.0612C10.9256 12.9662 10.6119 12.695 10.4777 12.572C9.06385 11.2786 8.22414 9.47471 8.14469 7.56025C8.05674 5.63752 8.74219 3.75951 10.048 2.34541C11.4153 0.858424 13.1883 0.0876723 15.1916 0.00166084ZM15.5158 14.5026H14.0861C13.8441 14.5029 13.4946 14.4891 13.2629 14.5173C11.1077 14.6747 9.33496 15.7625 8.24821 17.6521C7.52887 18.9029 7.41016 20.2218 7.46403 21.6423C7.47587 21.9524 7.65649 22.2167 7.96598 22.2878C11.037 22.8882 14.3641 23.0986 17.4679 22.9353C18.913 22.8633 20.3534 22.7072 21.7804 22.4685C22.2276 22.3945 23.2444 22.3625 23.2834 21.7771C23.3177 21.2531 23.323 20.6159 23.2765 20.0915C23.1272 18.4713 22.3415 16.9756 21.0929 15.9323C20.1084 15.1031 18.8851 14.6095 17.6007 14.5231C17.0003 14.4789 16.1319 14.5026 15.5158 14.5026ZM15.0861 1.86494C12.1109 2.02859 9.83241 4.57471 9.99821 7.54951C10.1642 10.524 12.7111 12.8002 15.6857 12.6325C18.6576 12.4648 20.9313 9.9207 20.7658 6.94893C20.6001 3.97725 18.0581 1.70148 15.0861 1.86494Z" fill="white"/>
<path d="M5.97745 2.76263C6.13738 2.74735 6.27562 2.7543 6.42776 2.8079C6.65949 2.89023 6.84883 3.0615 6.95388 3.28384C7.05751 3.51082 7.06723 3.76954 6.98093 4.00367C6.86486 4.31392 6.64396 4.45928 6.35565 4.58282C5.33318 5.021 4.54395 5.82778 4.14373 6.87639C3.50019 8.57769 4.05891 10.4995 5.5143 11.5907C5.67392 11.7117 5.90559 11.8665 6.08075 11.9517C6.45281 12.1327 6.82347 12.2112 7.00363 12.6285C7.09487 12.8399 7.10773 13.1305 7.01677 13.3434C6.77837 13.9016 6.33396 13.9056 5.83387 14.0137C5.628 14.0583 5.42658 14.1216 5.2321 14.2025C3.84831 14.8051 2.75727 15.9279 2.19483 17.3284C1.91765 18.0187 1.86254 18.6312 1.87039 19.367C1.86394 19.8901 1.84371 20.0047 2.40325 20.0976C2.63249 20.1357 3.03518 20.1953 3.25198 20.2763C3.78989 20.4776 3.98211 21.0072 3.76649 21.5276C3.67501 21.698 3.56053 21.8357 3.39112 21.933C3.26697 22.004 3.12793 22.0448 2.98512 22.0525C2.73387 22.0666 1.9192 21.9018 1.64874 21.8357C1.08441 21.6974 0.590764 21.3165 0.301322 20.8067C0.190233 20.612 0.1111 20.4007 0.0669233 20.181C-0.0835552 19.4323 0.0382832 18.0304 0.248298 17.2841C0.690808 15.7443 1.61948 14.389 2.89563 13.4204C3.27684 13.1309 3.56589 12.9614 3.9816 12.7279C3.85908 12.6308 3.65901 12.4197 3.55165 12.3005C2.85793 11.5284 2.37632 10.5896 2.15389 9.57582C1.82374 8.0495 2.10869 6.45457 2.94693 5.13696C3.50494 4.26235 4.28425 3.55076 5.20591 3.07433C5.45227 2.94582 5.70458 2.82205 5.97745 2.76263Z" fill="white"/>
<path d="M24.509 2.76274C24.8736 2.73446 25.0963 2.83743 25.4196 2.99706C26.183 3.36676 26.8586 3.89587 27.4002 4.5487C28.404 5.76412 28.8805 7.33023 28.7238 8.8987C28.5929 10.2784 27.8644 11.8409 26.7904 12.7265C27.4813 13.0871 28.1119 13.5531 28.6594 14.1078C29.6673 15.1252 30.4169 16.4592 30.6582 17.8801C30.7574 18.4647 30.7606 18.9413 30.7586 19.5303C30.7562 20.2367 30.6095 20.7829 30.0938 21.2941C29.6373 21.7574 29.049 21.8712 28.4379 21.9722C27.8695 22.0662 27.5552 22.165 27.1229 21.7096C26.8547 21.3398 26.8724 21.0891 27.0495 20.6566C27.3073 20.027 28.6418 20.2473 28.8456 19.8873C28.959 19.6869 28.8964 18.6559 28.8585 18.3864C28.8264 18.1642 28.7793 17.9443 28.7173 17.7285C28.2316 16.0422 26.6807 14.4338 24.9511 14.0134C24.681 13.9477 24.4003 13.9367 24.1519 13.7959C23.9375 13.6758 23.782 13.4728 23.7217 13.2346C23.6201 12.8493 23.7794 12.4425 24.1154 12.2284C24.2618 12.1342 24.5125 12.0364 24.6769 11.9535C24.863 11.858 25.0419 11.7489 25.212 11.627C25.6697 11.2997 26.0726 10.8369 26.3529 10.3499C26.8965 9.40023 27.0375 8.27251 26.7445 7.21823C26.4714 6.24247 25.8415 5.40503 24.9796 4.87221C24.7328 4.71896 24.4732 4.61668 24.2149 4.47638C23.7386 4.21766 23.5931 3.65357 23.8706 3.19117C24.0193 2.94367 24.2349 2.82898 24.509 2.76274Z" fill="white"/>
</svg>
