<svg width="37" height="31" viewBox="0 0 37 31" fill="none" xmlns="http://www.w3.org/2000/svg">
<path d="M10.54 0.00372168C12.7951 0.0581604 14.9699 0.852721 16.7284 2.26544C17.3252 2.74487 17.9705 3.40422 18.5048 3.96271C18.9875 3.47453 19.5117 2.92479 20.0273 2.47833C22.1011 0.704978 24.7926 -0.17555 27.5136 0.0291123C30.2528 0.230253 32.7984 1.51807 34.5839 3.60528C36.4324 5.76471 37.1872 8.3352 36.9609 11.158C36.6073 15.5732 33.626 18.2197 30.5693 21.0242C29.019 22.4403 27.4448 23.8303 25.8476 25.1932C24.4417 26.3974 23.026 27.5902 21.6015 28.7723C20.9118 29.3441 20.2277 29.9198 19.5185 30.4686C19.0496 30.8311 18.257 30.9632 17.7441 30.6297C17.0034 30.1479 16.2857 29.5 15.6005 28.9315C14.0325 27.6312 12.4744 26.3185 10.9277 24.993C9.25686 23.5645 7.61281 22.1045 5.997 20.6141C4.54284 19.2674 2.86577 17.7386 1.77825 16.0799C-2.60919 9.38824 1.54134 0.599742 9.63762 0.0212998C9.82539 -0.00392396 10.3452 -0.000361502 10.54 0.00372168ZM32.0361 5.66388C29.4979 2.77372 25.0029 2.45082 22.1025 5.00958C21.6449 5.41329 20.8164 6.23249 20.454 6.63556C19.0196 8.23094 18.0914 8.32186 16.6171 6.70196C16.1659 6.20612 15.0928 5.12799 14.5146 4.68829C13.7189 4.08625 12.8033 3.66109 11.83 3.44122C11.2355 3.30635 10.2113 3.23335 9.60833 3.31036C7.74304 3.47528 6.02127 4.38232 4.83098 5.82794C3.67652 7.24051 3.13248 9.05499 3.31731 10.8699C3.43956 12.0925 3.85196 13.2683 4.52141 14.2986C5.31152 15.5081 6.98077 17.0678 8.06243 18.0721C10.3603 20.1821 12.7058 22.24 15.0966 24.244L17.3476 26.1277C17.6762 26.4009 18.2077 26.8152 18.5058 27.0975C20.9002 25.0444 23.4681 23.02 25.7997 20.8992C27.1769 19.7064 28.5261 18.4816 29.8456 17.2254C30.8188 16.2861 31.9401 15.2181 32.6327 14.0633C33.2657 13.0206 33.6364 11.84 33.7138 10.6229C33.8352 8.81257 33.2315 7.02867 32.0361 5.66388Z" fill="white"/>
</svg>
