<svg width="26" height="26" viewBox="0 0 26 26" fill="none" xmlns="http://www.w3.org/2000/svg">
<path d="M12.5052 0.0188262C13.4873 -0.0392086 14.033 -0.00432445 14.7767 0.734647C15.6228 1.57532 16.466 2.42289 17.3089 3.26687L22.0668 8.02371L24.3783 10.3343C25.186 11.1416 25.9589 11.6563 25.9847 12.887C26.0086 14.0289 25.4749 14.8386 24.39 15.2493C24.024 15.3878 23.6184 15.3709 23.2367 15.3733L23.2377 20.7737L23.2386 22.3196C23.2384 23.4088 23.2804 24.2955 22.4339 25.1468C21.7462 25.8386 21.0651 25.9892 20.1273 25.9915C19.1349 26.0037 18.1131 25.9832 17.1244 25.9944C15.5282 26.0122 15.5069 25.8874 15.5189 24.4104L15.5209 20.8206C15.5215 20.1925 15.5495 19.4445 15.4779 18.8245C15.4532 18.6118 15.2813 18.3466 15.1293 18.1917C14.6923 17.7469 14.0869 17.8223 13.5072 17.8264C12.9668 17.8304 12.4213 17.8242 11.8793 17.8235C11.3331 17.8229 10.8526 18.0652 10.6244 18.5716C10.4472 18.9651 10.4989 19.8932 10.4994 20.3675L10.5033 23.6897C10.5039 24.2093 10.5187 24.7469 10.4925 25.2649C10.472 25.6703 10.1901 25.9517 9.78258 25.9798C9.31609 26.012 8.8254 25.9952 8.35289 25.9934H5.8607C4.94008 25.985 4.24798 25.8205 3.57652 25.1389C2.86104 24.4122 2.78938 23.6697 2.78258 22.7874V20.8372C2.78212 19.0253 2.76434 17.1828 2.78648 15.3733C2.20094 15.377 1.7864 15.3715 1.24547 15.0784C0.682608 14.7736 0.266102 14.2544 0.090193 13.6389C-0.0840623 13.0282 -0.00575683 12.3 0.324568 11.7503C0.619604 11.2592 1.82554 10.1543 2.28453 9.69558L6.27574 5.70535L9.65172 2.32937C10.0942 1.88555 10.541 1.43943 10.9818 0.994412C11.4705 0.500979 11.8051 0.186348 12.5052 0.0188262ZM12.9134 1.49344C12.727 1.53132 12.5807 1.5768 12.4378 1.70926C12.1499 1.97634 11.8693 2.26414 11.5912 2.54226L10.0912 4.04324L2.80992 11.3245C2.4311 11.7034 1.99812 12.1035 1.66148 12.5091C1.4004 12.8979 1.51898 13.4217 1.87535 13.68C2.48188 14.1193 4.1231 13.4161 4.27867 14.4397C4.35241 14.9259 4.30492 15.9227 4.30601 16.4475L4.30699 21.7405C4.30704 22.062 4.30412 22.3893 4.30699 22.7063C4.31141 23.1929 4.27741 23.6529 4.63414 24.0345C4.84744 24.2627 5.07501 24.4022 5.3939 24.4358C5.84195 24.4838 6.30128 24.4686 6.7523 24.468L8.97203 24.4641L8.97398 20.9387C8.9737 20.2572 8.92389 19.0165 9.07554 18.4046C9.19852 17.9119 9.45523 17.4624 9.81773 17.1067C10.7949 16.1431 11.9003 16.2921 13.1507 16.2971C14.3624 16.2927 15.2562 16.1891 16.2132 17.1194C17.2724 18.1491 17.0257 19.4925 17.0472 20.8245C17.0668 22.0365 17.0313 23.2541 17.0482 24.4661L19.2308 24.4671C19.7386 24.4671 20.2957 24.4954 20.7865 24.4036C21.1852 24.3287 21.619 23.8758 21.6693 23.4768C21.7465 22.8627 21.7105 22.1724 21.7103 21.5511L21.7113 16.9553C21.7115 16.1983 21.6953 15.4319 21.7162 14.6761C21.7644 12.9268 24.4191 14.7817 24.5003 12.9397C24.5179 12.5404 24.0225 12.1377 23.7523 11.8675L22.808 10.9231L19.7513 7.86844L15.6683 3.7864L14.4252 2.54226C14.1727 2.28773 13.9229 2.03041 13.6625 1.78347C13.4292 1.56232 13.245 1.47635 12.9134 1.49344Z" fill="white"/>
</svg>
