<svg width="45" height="44" viewBox="0 0 45 44" fill="none" xmlns="http://www.w3.org/2000/svg">
<path d="M22.1795 2.35365C24.2094 0.793464 28.2207 -0.969657 33.0291 0.63295L33.0711 0.648575L33.202 0.703262L33.2381 0.719864C35.4016 1.80166 36.3121 3.65394 36.5506 5.39857C36.6469 6.10343 36.6347 6.79786 36.5614 7.43861C37.1726 7.4805 37.8264 7.58177 38.4832 7.77357C40.0895 8.24279 41.7783 9.26173 42.8289 11.2179L42.9286 11.4103C44.1685 13.8905 43.9005 16.215 42.87 17.9328C42.5608 18.448 42.1772 18.9107 41.7479 19.3048C42.3849 19.932 42.9182 20.6629 43.3299 21.4376L43.4315 21.6359C44.3214 23.4154 44.6804 25.6049 44.0174 27.5939C43.0258 30.568 40.4684 32.6989 37.6082 33.4103C37.8532 34.5176 37.9698 35.8044 37.7684 37.088C37.413 39.3517 36.0605 41.5574 33.0291 42.5685C28.1876 44.1831 24.207 41.899 22.1795 39.9962C20.152 41.899 16.1713 44.183 11.3299 42.5685C8.29833 41.5574 6.94595 39.3509 6.59066 37.0871C6.38929 35.8035 6.5059 34.5175 6.75082 33.4103C3.89071 32.6989 1.33328 30.5679 0.34164 27.5939C-0.321315 25.605 0.0376921 23.4153 0.927577 21.6359L1.02914 21.4376C1.44088 20.6629 1.97419 19.932 2.61117 19.3048C2.18181 18.9107 1.79825 18.448 1.4891 17.9328C0.458525 16.215 0.190516 13.8905 1.43051 11.4103L1.53012 11.2179C2.5807 9.26159 4.26946 8.24281 5.87582 7.77357C6.53271 7.58175 7.18647 7.4805 7.79769 7.43861C7.72439 6.79786 7.7122 6.10344 7.80844 5.39857C8.0469 3.65388 8.95739 1.80171 11.1209 0.719864L11.1571 0.703262L11.2879 0.648575L11.3299 0.63295C16.1385 -0.969735 20.1497 0.79344 22.1795 2.35365ZM31.8993 3.62221C28.3889 2.50365 25.4989 3.8282 24.1444 4.8683V16.9308C24.4747 18.3895 25.419 19.6294 26.6121 20.6232C27.8422 21.6476 29.2121 22.3053 30.0409 22.5812C30.876 22.86 31.3277 23.7622 31.0506 24.5978V24.5988C30.7725 25.434 29.8679 25.8904 29.0301 25.6115C27.861 25.2221 26.1339 24.3803 24.5692 23.0773C24.4262 22.9582 24.2846 22.8336 24.1444 22.7052V37.4552C25.5065 38.8645 28.4849 40.7189 32.0194 39.5402C32.9211 39.2394 33.5109 38.8035 33.9012 38.3126C34.2938 37.8188 34.5134 37.2331 34.6141 36.5919C34.8289 35.2217 34.4728 33.686 34.0526 32.7033C33.8679 32.2707 33.886 31.7841 34.0907 31.3703L34.1893 31.1974C34.4845 30.7503 34.9846 30.4807 35.5213 30.4806C37.8654 30.4804 40.2177 28.8911 40.9871 26.5831C41.3217 25.5791 41.182 24.2764 40.576 23.0646C39.9697 21.8526 39.0091 20.9583 38.0028 20.6232L37.867 20.5704C37.2052 20.2807 36.8166 19.5754 36.9334 18.8527L36.9627 18.7091C37.1303 18.0569 37.6921 17.5786 38.3631 17.5177L38.5077 17.5109L38.5633 17.5079C38.7069 17.4925 38.9484 17.4194 39.2323 17.2365C39.5058 17.0601 39.7912 16.7986 40.0321 16.4464L40.1327 16.2902C40.5979 15.5141 40.8276 14.3473 40.0731 12.838C39.5179 11.7278 38.6041 11.1359 37.5877 10.839C36.5331 10.5311 35.4518 10.5739 34.8338 10.6974C34.2586 10.8124 33.6677 10.6014 33.2938 10.1525V10.1515C32.943 9.72978 32.834 9.15965 33.0008 8.64174L33.0379 8.5392C33.2938 7.8995 33.5235 6.83304 33.3866 5.83022C33.2628 4.92569 32.8631 4.13778 31.8993 3.62221ZM20.2147 4.8683C18.8602 3.8282 15.9702 2.50365 12.4598 3.62221C11.4961 4.13778 11.0962 4.92574 10.9725 5.83022C10.8356 6.83297 11.0653 7.89955 11.3211 8.5392L11.3582 8.64174C11.5251 9.15965 11.416 9.72978 11.0653 10.1515L10.9159 10.3087C10.5444 10.6486 10.0288 10.7971 9.52523 10.6964C8.9073 10.5729 7.82578 10.5302 6.77133 10.838C5.75487 11.1349 4.84117 11.7277 4.28598 12.838C3.53149 14.3472 3.76118 15.5131 4.22641 16.2892L4.32699 16.4464C4.56785 16.7986 4.85327 17.0601 5.1268 17.2365C5.41065 17.4194 5.65219 17.4925 5.79574 17.5079L5.85141 17.5109L5.99594 17.5177C6.66699 17.5786 7.22884 18.0568 7.39633 18.7091L7.42562 18.8517C7.54262 19.5746 7.15394 20.2807 6.49203 20.5704L6.35629 20.6222C5.35003 20.9573 4.38936 21.8518 3.78305 23.0636C3.17686 24.2757 3.03729 25.579 3.37191 26.5831C4.14145 28.8913 6.49451 30.4806 8.83871 30.4806C9.37525 30.4808 9.87468 30.7504 10.1698 31.1974L10.2684 31.3703C10.473 31.7841 10.4912 32.2707 10.3065 32.7033C9.88626 33.6861 9.53008 35.2216 9.74496 36.5919C9.84561 37.2331 10.0652 37.8188 10.4579 38.3126C10.8482 38.8034 11.4381 39.2394 12.3397 39.5402C15.8741 40.7189 18.8526 38.8645 20.2147 37.4552V22.7052C20.0745 22.8336 19.9329 22.9582 19.7899 23.0773C18.2253 24.3802 16.498 25.2212 15.3289 25.6105C14.4912 25.8894 13.5866 25.4339 13.3084 24.5988V24.5978C13.0312 23.7621 13.4829 22.859 14.3182 22.5802C15.1469 22.3043 16.5169 21.6475 17.7469 20.6232C18.94 19.6294 19.8843 18.3894 20.2147 16.9308V4.8683Z" fill="white"/>
</svg>
