<svg width="41" height="33" viewBox="0 0 41 33" fill="none" xmlns="http://www.w3.org/2000/svg">
<path d="M19.6105 0.0234651C20.102 -0.028727 20.599 0.00630485 21.0783 0.126981C22.1787 0.396888 24.4863 1.87119 25.55 2.49222L31.0548 5.69241L36.3478 8.76077C37.2603 9.29125 38.1869 9.81769 39.0822 10.3653C40.0932 10.9838 40.3972 12.4169 39.7326 13.3936C39.4258 13.8444 39.1157 14.0512 38.6632 14.3116C38.698 15.5005 38.6661 16.8568 38.6662 18.0567L38.671 25.7041C39.3905 26.1924 39.737 27.0732 39.5763 27.9229C39.4607 28.5064 39.1153 29.0189 38.6183 29.3457C38.1332 29.6644 37.541 29.7768 36.9728 29.6582C36.3938 29.5331 35.8882 29.1816 35.5705 28.6817C34.9496 27.7151 35.2177 26.3244 36.1925 25.7032L36.1876 15.7461C35.4354 16.1895 34.6797 16.6272 33.921 17.0596L33.9269 21.4785C33.9288 24.4581 34.2537 26.2239 31.3625 27.9385L26.6593 30.6494C25.584 31.27 24.3657 32.0342 23.2121 32.4512C22.1979 32.81 21.1306 32.9958 20.0548 33C18.9441 33 17.842 32.8046 16.799 32.4229C16.3958 32.272 16.0016 32.0955 15.6203 31.8955C14.4137 31.271 12.8208 30.2893 11.6222 29.6123C10.7112 29.0977 8.06728 27.6435 7.46011 27.0362C6.9143 26.4944 6.52109 25.8177 6.32046 25.0752C6.06733 24.119 6.14912 22.4234 6.15054 21.3867L6.15542 17.0557C5.1105 16.4868 4.08168 15.8419 3.04409 15.2559C2.355 14.8667 1.65003 14.4671 0.987451 14.0381C-0.411937 13.132 -0.294369 11.066 1.15249 10.2744C2.29424 9.60392 3.43069 8.94137 4.57046 8.27932L11.0021 4.54593L15.5607 1.89358C16.8623 1.13586 18.0987 0.226669 19.6105 0.0234651ZM24.4943 22.541C22.7623 23.5335 21.1979 24.8159 19.0812 24.3106C18.0127 24.0555 17.0729 23.4093 16.1339 22.8614L11.0832 19.9229C10.6512 19.6707 9.01046 18.6742 8.63589 18.5196L8.62905 22.0332C8.62927 22.8107 8.54117 23.7134 8.72476 24.4698C8.79891 24.7749 8.96246 25.0227 9.17788 25.2481C9.58728 25.6765 16.6519 29.7126 17.4386 30.0264C18.2253 30.3413 19.064 30.5072 19.9113 30.5157C20.7884 30.5265 21.6658 30.3999 22.4884 30.0879C23.2779 29.7882 30.3652 25.7679 30.8751 25.2783C31.1002 25.0617 31.2655 24.7755 31.3722 24.4834C31.5325 23.7605 31.4511 23.1347 31.4738 22.4141C31.5129 21.1686 31.412 19.722 31.4738 18.4971L24.4943 22.541ZM19.7052 2.49905C18.9194 2.68948 16.58 4.16571 15.7238 4.66311L7.04897 9.69729L4.22769 11.3369C3.8041 11.5831 3.13488 11.9994 2.71206 12.2022L13.925 18.7188L17.2316 20.6407C17.8907 21.0269 18.597 21.4685 19.2843 21.792C19.654 21.966 20.0594 21.956 20.4562 21.9082C21.1345 21.7021 22.0061 21.1383 22.6417 20.7666L25.3322 19.1944L37.3683 12.2022C35.9568 11.4213 34.5208 10.5612 33.1232 9.74905L25.7003 5.43362C24.7 4.85866 23.7025 4.27876 22.7082 3.69339C21.7358 3.12413 20.8699 2.41525 19.7052 2.49905Z" fill="white"/>
</svg>
