<svg width="61" height="56" viewBox="0 0 61 56" fill="none" xmlns="http://www.w3.org/2000/svg">
<path d="M52.4579 11.8586C53.1534 12.7943 52.9582 14.1176 52.0226 14.8133L51.644 15.0947L54.1653 18.4857C55.5569 20.3572 55.1678 23.0023 53.2963 24.3938C52.0635 25.3104 50.4954 25.454 49.1706 24.9107L49.8524 25.8276C51.343 27.8327 50.9262 30.667 48.9212 32.1579C46.9161 33.6488 44.0819 33.2317 42.5908 31.2268L38.0913 25.1752L25.7116 34.38L30.2117 40.4323L30.3457 40.6223C31.632 42.5487 31.2507 45.1442 29.4643 46.6187L29.2805 46.7627C27.2753 48.2534 24.441 47.8366 22.9502 45.8315L22.2655 44.9107C22.1423 46.0432 21.5947 47.1263 20.6599 47.9019L20.4681 48.053C18.4628 49.544 15.6286 49.1271 14.1377 47.1219L12.1554 44.4558L11.7729 44.7401C10.8373 45.4357 9.51469 45.241 8.81887 44.3056C8.12312 43.3699 8.31714 42.0465 9.25282 41.3507L9.63525 41.0664L6.93857 37.4395C5.44782 35.4343 5.8646 32.6001 7.86974 31.1092L8.06974 30.969C9.08157 30.2972 10.2766 30.0847 11.3966 30.2928L11.072 29.8562C9.58115 27.8511 9.99819 25.0169 12.0032 23.5259L12.194 23.3913C14.1205 22.1052 16.7158 22.4875 18.1902 24.274L18.3336 24.4571L23.192 30.9913L35.5718 21.7866L30.7122 15.2507C29.2214 13.2455 29.6382 10.4113 31.6433 8.92038C33.6484 7.42968 36.4827 7.84663 37.9737 9.85156L39.0155 11.2528C38.8766 9.82763 39.4652 8.36663 40.6979 7.44996C42.5695 6.0584 45.2151 6.44827 46.6067 8.31981L49.1245 11.7061L49.503 11.4246C50.4388 10.7289 51.7621 10.9228 52.4579 11.8586ZM15.9136 26.2564C15.4166 25.588 14.4716 25.4497 13.8031 25.9467C13.1349 26.4437 12.9959 27.388 13.4928 28.0563L13.8174 28.4928C14.5576 29.4884 14.6122 30.8358 13.9558 31.8885C13.2993 32.9412 12.0657 33.4844 10.846 33.2577C10.441 33.1824 10.0197 33.2698 9.66967 33.5299C9.00134 34.0269 8.86178 34.9718 9.35856 35.6402L16.5577 45.3225C17.0547 45.9909 17.9997 46.1292 18.6681 45.6323C19.018 45.372 19.2231 44.9936 19.2676 44.5842C19.4018 43.3509 20.2773 42.3259 21.4743 42.0003C22.6714 41.6749 23.946 42.1151 24.6863 43.1107L25.3709 44.0316C25.8679 44.6999 26.8122 44.8387 27.4806 44.3419C28.149 43.8449 28.2887 42.9 27.7917 42.2316L15.9136 26.2564ZM44.1867 10.1192C43.7891 9.58443 43.0326 9.47314 42.4979 9.87073C42.149 10.1302 41.9773 10.5433 42.018 10.9602C42.1493 12.3084 41.3652 13.5791 40.1015 14.0669C38.8376 14.5546 37.4032 14.1398 36.5948 13.0527L35.5529 11.6515C35.0559 10.9834 34.1116 10.8444 33.4433 11.3412C32.7749 11.8381 32.6354 12.783 33.1321 13.4514L45.0108 29.4274C45.5079 30.0956 46.453 30.2341 47.1213 29.7372C47.7894 29.2402 47.9283 28.2958 47.4316 27.6275L46.7499 26.7106C45.9415 25.6234 45.9574 24.1303 46.7885 23.0603C47.6195 21.9906 49.0621 21.6056 50.3154 22.1197C50.7029 22.2786 51.148 22.2332 51.4969 21.9738C52.0316 21.5762 52.1429 20.8197 51.7453 20.285L44.1867 10.1192Z" fill="white"/>
</svg>
