<svg width="27" height="27" viewBox="0 0 27 27" fill="none" xmlns="http://www.w3.org/2000/svg">
<path d="M6.91001 0.389716C9.73977 -0.553256 12.1234 0.395814 13.4266 1.32331C14.6873 0.426296 16.958 -0.490448 19.6659 0.303779L19.9432 0.389716L19.9579 0.395576L19.9833 0.405341L19.9862 0.406318L20.0633 0.438544C20.069 0.440876 20.0754 0.443662 20.0809 0.446357L20.1024 0.457099L20.1053 0.458076C21.4917 1.15132 22.076 2.34537 22.2274 3.45319C22.2732 3.7892 22.2796 4.11954 22.2606 4.43269C22.5517 4.46718 22.8554 4.5251 23.161 4.61433C24.1059 4.89038 25.109 5.47469 25.7811 6.57136L25.912 6.79694L25.9139 6.80183L25.9725 6.91511L25.9745 6.91901C26.7533 8.47697 26.5908 9.96034 25.9286 11.0645C25.7836 11.3061 25.6129 11.5296 25.4247 11.7305C25.6867 12.0201 25.9159 12.3369 26.1083 12.669L26.2088 12.8487L26.2108 12.8526L26.2704 12.9698L26.2723 12.9727C26.8252 14.0784 27.0584 15.4569 26.6356 16.7257C26.0455 18.4955 24.575 19.7813 22.9042 20.2872C23.0155 20.9039 23.0568 21.5987 22.9471 22.2979C22.7219 23.7321 21.8561 25.1392 19.9432 25.7774C17.0886 26.7294 14.7225 25.4962 13.4256 24.3712C12.1287 25.4959 9.76376 26.729 6.91001 25.7774C4.99705 25.1394 4.13044 23.7331 3.90513 22.2989C3.7954 21.5995 3.83665 20.9032 3.9481 20.2862C2.27751 19.7803 0.807721 18.4953 0.217627 16.7257C-0.205279 15.4569 0.027108 14.0784 0.579931 12.9727L0.581885 12.9698L0.641455 12.8526L0.644385 12.8487C0.855616 12.4513 1.11867 12.0718 1.42759 11.7305C1.23943 11.5297 1.0686 11.3069 0.923681 11.0655C0.261286 9.96131 0.0989732 8.47706 0.877783 6.91901L0.879736 6.91511L0.939306 6.80183L0.94126 6.79694C1.6092 5.55349 2.68344 4.90877 3.69126 4.61433C3.99679 4.52511 4.3006 4.46718 4.59165 4.43269C4.5726 4.11925 4.57992 3.78847 4.62583 3.45222C4.77728 2.34463 5.361 1.15128 6.74692 0.458076L6.75571 0.453193L6.7772 0.443427L6.78696 0.439521L6.86411 0.407294L6.87485 0.402412L6.90024 0.393623C6.90336 0.392467 6.90687 0.390763 6.91001 0.389716ZM19.0624 2.71491C17.2101 2.13618 15.6727 2.77314 14.8856 3.32917V10.2833C15.0681 11.0504 15.5731 11.7228 16.2401 12.2784C16.937 12.8587 17.7145 13.23 18.1737 13.3829L18.285 13.4268C18.8242 13.6657 19.1212 14.2549 18.993 14.8301C18.9919 14.8352 18.9905 14.8408 18.9891 14.8458L18.9627 14.9385C18.9615 14.9431 18.9603 14.9477 18.9588 14.9522C18.7428 15.6009 18.0403 15.9561 17.3885 15.7393C16.7232 15.5178 15.7776 15.0631 14.8856 14.3721V22.3458C15.6824 23.1227 17.2841 24.0478 19.1581 23.4229C19.6445 23.2606 19.9428 23.033 20.1336 22.793C20.3271 22.5497 20.4414 22.2544 20.495 21.9132C20.6109 21.1733 20.4169 20.3218 20.1825 19.7735C20.0182 19.3888 20.0605 18.9489 20.2889 18.6026C20.5181 18.2557 20.9066 18.0452 21.3241 18.045C22.5905 18.045 23.8657 17.18 24.2792 15.9405C24.4469 15.4371 24.3847 14.7474 24.0526 14.0831C23.7203 13.4189 23.205 12.9543 22.7 12.7862C22.6956 12.7847 22.6908 12.783 22.6864 12.7813L22.6053 12.7501C22.6017 12.7487 22.5981 12.7467 22.5946 12.7452C22.0795 12.5196 21.7772 11.9707 21.868 11.4092C21.8687 11.4053 21.8692 11.4014 21.87 11.3975L21.8875 11.3135C21.8885 11.3089 21.8903 11.3035 21.8915 11.2989C22.0218 10.7919 22.4582 10.4196 22.9803 10.3721L22.995 10.3712L23.0721 10.3682L23.0965 10.3653C23.1303 10.3609 23.2284 10.3376 23.3612 10.252C23.4908 10.1684 23.6311 10.0405 23.7508 9.8653L23.8055 9.78034C24.0257 9.40794 24.1534 8.82704 23.7547 8.02936C23.4709 7.46182 23.0065 7.1554 22.4647 6.99714C21.8929 6.83025 21.3017 6.8538 20.9754 6.91901C20.5278 7.00849 20.0686 6.84485 19.7782 6.49616C19.5058 6.16862 19.4211 5.72512 19.5506 5.32233C19.5516 5.31927 19.5525 5.3156 19.5536 5.31257L19.576 5.25104L19.579 5.24128C19.7161 4.89826 19.8399 4.31953 19.7674 3.78815L19.7372 3.61921C19.6528 3.24192 19.4586 2.93418 19.0624 2.71491ZM11.9676 3.32819C11.1805 2.7721 9.6424 2.13496 7.78989 2.71394C7.33602 2.96507 7.14708 3.33307 7.08481 3.78815C7.02138 4.25315 7.10803 4.7548 7.22251 5.10261L7.27231 5.24128L7.27622 5.25104L7.29868 5.31159L7.30161 5.32136C7.43143 5.72436 7.34655 6.16756 7.07407 6.49519C6.78391 6.8434 6.32473 7.00855 5.87681 6.91901C5.5505 6.85383 4.95918 6.83029 4.38755 6.99714C3.84593 7.15541 3.3822 7.46144 3.09849 8.02839C2.69698 8.8315 2.82874 9.415 3.05161 9.78718L3.10142 9.8653C3.22122 10.0405 3.36153 10.1685 3.49106 10.252C3.62502 10.3384 3.72364 10.3621 3.75669 10.3663L3.77524 10.3673L3.85923 10.3712L3.87192 10.3721C4.36124 10.4166 4.77615 10.7462 4.93345 11.2051L4.96177 11.2989L4.9647 11.3135L4.98228 11.3985L4.98423 11.4092C5.07495 11.9707 4.77286 12.5196 4.25767 12.7452C4.25394 12.7468 4.24973 12.7486 4.24595 12.7501L4.16587 12.7813C4.1615 12.783 4.15665 12.7847 4.1522 12.7862C3.64742 12.9544 3.13287 13.4191 2.80063 14.0831C2.46853 14.7473 2.40551 15.4361 2.5731 15.9395C2.98639 17.1792 4.26172 18.0448 5.52817 18.045L5.6063 18.0469C5.99336 18.0714 6.34831 18.2762 6.56333 18.6016C6.56685 18.607 6.5709 18.6127 6.57407 18.6182L6.63267 18.7208L6.64048 18.7364C6.79923 19.0576 6.81337 19.4359 6.66978 19.7725C6.43535 20.3208 6.24126 21.1731 6.35728 21.9132C6.4109 22.2545 6.52523 22.5498 6.7186 22.793C6.90951 23.0331 7.20849 23.2606 7.69517 23.4229C9.56901 24.0477 11.1708 23.1228 11.9676 22.3458V14.3721C11.0757 15.0632 10.1301 15.5177 9.4647 15.7393C8.81285 15.9564 8.10945 15.6009 7.89341 14.9522C7.67828 14.3028 8.02942 13.5997 8.67856 13.3829L8.86509 13.3155C9.33082 13.134 10.0023 12.7861 10.6122 12.2784C11.2793 11.7227 11.7851 11.0504 11.9676 10.2833V3.32819ZM5.16685 19.3292C5.20763 19.3669 5.24488 19.4091 5.27524 19.4571C5.304 19.5027 5.32617 19.5524 5.34263 19.6026C5.37409 19.5116 5.40711 19.4246 5.44028 19.3428C5.34914 19.3409 5.2577 19.3372 5.16685 19.3292ZM21.411 19.3428C21.4442 19.4247 21.4781 19.5115 21.5096 19.6026C21.526 19.5524 21.5482 19.5037 21.577 19.4581C21.6072 19.4104 21.6439 19.3668 21.6844 19.3292C21.5936 19.3371 21.5021 19.3409 21.411 19.3428ZM2.98423 11.4581C3.01502 11.5307 3.03325 11.6097 3.03599 11.6905L3.03403 11.7647C3.02974 11.8167 3.01805 11.8682 3.00181 11.9171C3.16191 11.8105 3.33024 11.718 3.50474 11.6426C3.32802 11.6094 3.15127 11.5442 2.98423 11.4581ZM23.868 11.4581C23.7009 11.5442 23.5243 11.6095 23.3475 11.6426C23.5219 11.718 23.6895 11.8106 23.8495 11.9171C23.8257 11.8454 23.8138 11.7689 23.8163 11.6915C23.819 11.6105 23.8371 11.531 23.868 11.4581ZM5.86509 5.39753L5.82212 5.45515C5.78036 5.50545 5.73095 5.54813 5.67759 5.58308C5.80406 5.59284 5.92165 5.60831 6.02817 5.62604C5.99077 5.52356 5.95354 5.41044 5.92075 5.28913C5.90531 5.32637 5.88747 5.36342 5.86509 5.39753ZM20.9305 5.28913C20.8977 5.41056 20.8605 5.52349 20.8231 5.62604C20.9296 5.60829 21.0472 5.59283 21.1737 5.58308C21.1405 5.56123 21.1088 5.53667 21.0799 5.50886L21.0301 5.45515C20.9884 5.40471 20.955 5.34818 20.9305 5.28913Z" fill="#8EA6FC"/>
</svg>
